<?xml version="1.0" standalone="no"?>
<!DOCTYPE svg PUBLIC "-//W3C//DTD SVG 20010904//EN"
 "http://www.w3.org/TR/2001/REC-SVG-20010904/DTD/svg10.dtd">
<svg version="1.0" xmlns="http://www.w3.org/2000/svg"
 width="300.000000pt" height="450.000000pt" viewBox="0 0 300.000000 450.000000"
 preserveAspectRatio="xMidYMid meet">
<metadata>
Created by potrace 1.15, written by Peter Selinger 2001-2017
</metadata>
<g transform="translate(0.000000,450.000000) scale(0.100000,-0.100000)"
fill="#000000" stroke="none">
<path d="M1360 4394 c-53 -23 -93 -58 -115 -100 -11 -22 -29 -52 -41 -69 -31
-43 -36 -66 -39 -186 -2 -99 -5 -112 -31 -154 -16 -26 -39 -63 -51 -83 -50
-81 -87 -311 -63 -382 6 -17 -1 -134 -8 -143 -20 -26 -21 -85 -3 -109 15 -19
18 -38 16 -113 -2 -55 -8 -91 -15 -93 -7 -3 -8 -8 -1 -16 22 -26 19 -89 -10
-208 -55 -232 -70 -355 -49 -388 7 -11 10 -6 10 22 0 20 5 40 10 43 6 4 10
-29 11 -92 0 -54 3 -130 7 -169 l8 -71 -31 1 c-25 1 -30 6 -30 25 0 14 6 26
14 29 8 3 11 0 7 -7 -4 -6 -2 -11 4 -11 7 0 9 7 6 16 -3 9 -6 17 -6 20 0 2 -6
1 -14 -2 -11 -4 -16 4 -18 32 -2 21 -8 39 -14 41 -17 6 -25 -55 -13 -101 14
-52 26 -66 54 -66 12 0 29 -8 36 -17 11 -15 11 -16 -1 -5 -25 22 -32 13 -10
-15 19 -25 21 -38 19 -161 -1 -73 -6 -156 -10 -184 -23 -146 -41 -481 -56
-1074 l-6 -252 31 -16 c18 -9 31 -21 29 -27 -6 -31 224 -57 257 -30 7 6 21 37
31 69 9 31 18 62 20 67 2 6 4 -2 4 -16 1 -15 -6 -43 -15 -64 -14 -34 -14 -38
3 -51 36 -29 55 -35 102 -36 88 -2 150 58 122 118 -10 22 -9 24 19 24 21 0 30
5 30 16 0 13 7 15 31 10 17 -3 62 -6 100 -6 43 0 72 -5 81 -13 24 -24 54 -36
116 -46 47 -8 78 -21 136 -60 41 -28 79 -57 83 -64 15 -24 128 -104 171 -121
69 -26 152 -20 152 11 0 12 -3 13 -14 4 -11 -9 -15 -8 -20 4 -3 9 -2 13 4 10
5 -3 16 -2 24 2 11 6 6 24 -27 92 -47 97 -84 223 -98 336 -6 44 -15 85 -20 91
-9 11 -15 48 -54 334 -25 179 -43 245 -123 465 -6 17 -16 57 -22 90 -7 33 -19
78 -27 100 -19 50 -52 223 -47 250 1 11 8 40 14 64 6 24 8 46 6 49 -3 2 -9
-15 -13 -39 l-7 -44 -7 56 c-3 31 -13 70 -23 88 -9 17 -23 45 -32 62 -22 41
-41 24 -25 -22 6 -18 8 -35 5 -38 -7 -8 -34 29 -34 46 0 8 -7 25 -16 39 -17
26 -16 59 6 199 5 37 5 109 0 190 -6 71 -13 181 -16 243 -5 75 -11 112 -19
112 -8 0 -11 77 -10 302 0 252 -2 303 -14 316 -13 12 -16 12 -23 -7 -9 -25
-32 -36 -50 -25 -13 8 -131 43 -155 46 -6 1 -13 12 -16 25 -3 18 4 28 38 50
115 75 133 81 226 89 80 6 93 -5 116 -98 14 -59 13 -159 -2 -318 -2 -19 -5
-87 -8 -150 l-6 -115 14 130 c7 72 18 175 25 231 10 86 9 114 -5 192 -19 103
-38 131 -105 151 -22 6 -40 17 -40 23 0 6 -25 61 -55 123 -51 104 -56 121 -64
212 -10 111 -43 197 -105 269 -53 62 -164 84 -246 48z m166 -200 c39 -19 84
-58 84 -75 0 -9 -3 -9 -14 0 -11 10 -24 9 -55 0 -46 -14 -85 -47 -43 -36 22 5
23 4 8 -12 -15 -16 -15 -20 -2 -30 17 -14 52 -7 78 17 23 20 14 32 -25 33 -27
0 -29 2 -11 9 11 4 33 6 48 3 27 -6 28 -8 22 -50 -3 -25 -14 -58 -23 -75 -14
-23 -15 -32 -5 -35 20 -7 14 -31 -13 -49 -14 -9 -23 -20 -20 -24 3 -5 -9 -20
-26 -35 -22 -18 -41 -25 -62 -23 -44 4 -45 26 -3 33 37 7 80 37 69 49 -3 3
-24 6 -45 6 -43 0 -50 16 -13 30 33 13 32 21 -2 18 -27 -3 -28 -2 -29 52 0 76
-9 97 -45 105 -28 6 -30 9 -24 38 13 63 78 85 151 51z m193 -496 c-21 -9 -39
-22 -39 -28 0 -5 -9 -10 -19 -10 -11 0 -28 -11 -38 -23 -25 -32 -50 -44 -103
-52 -80 -11 -79 -9 -82 -83 -4 -81 -18 -88 -66 -32 l-33 38 36 22 c20 13 40
33 45 45 6 15 22 26 53 33 24 7 50 18 57 27 11 13 8 15 -15 15 l-27 0 24 29
c25 32 45 36 179 36 l67 1 -39 -18z m-378 -324 c9 -8 18 -11 22 -8 3 4 27 -6
54 -20 l48 -27 -23 24 -23 24 26 -5 c14 -2 38 -16 53 -31 15 -14 38 -34 52
-44 20 -14 20 -15 3 -7 -31 14 -38 13 -22 -6 22 -27 93 -71 107 -67 18 7 42
-16 42 -39 0 -16 -3 -17 -20 -8 -11 6 -20 8 -20 5 0 -3 -19 7 -42 23 -53 36
-68 44 -68 39 0 -2 20 -18 45 -37 25 -18 43 -36 40 -38 -6 -6 -158 77 -167 91
-4 7 -15 12 -25 12 -10 0 -17 6 -15 13 1 8 -1 11 -6 8 -5 -3 -20 1 -34 8 -13
7 -46 21 -71 31 -26 10 -47 22 -47 27 0 5 6 6 13 2 10 -6 10 -4 0 7 -18 19
-16 32 3 25 15 -6 15 -4 3 10 -12 15 -10 16 21 9 19 -4 42 -13 51 -21z m-177
-6 c9 -12 16 -17 16 -11 0 6 9 9 20 6 10 -3 18 -10 17 -16 -1 -6 33 -29 75
-51 51 -26 73 -43 65 -48 -8 -5 -4 -8 12 -8 13 0 40 -13 60 -29 20 -15 41 -26
47 -24 14 5 180 -73 190 -89 5 -7 3 -8 -5 -4 -7 5 -18 1 -25 -9 -12 -16 -16
-15 -55 11 -85 57 -117 74 -173 95 -32 12 -58 28 -58 35 0 8 0 17 0 22 -1 8
-59 41 -74 42 -6 0 -1 -7 10 -15 18 -14 17 -14 -11 -15 -17 0 -35 4 -40 9 -6
6 -28 17 -50 26 l-40 16 28 -26 c31 -28 24 -34 -11 -9 -12 8 -22 12 -23 7 -1
-20 -18 35 -18 63 -1 49 18 58 43 22z m56 -139 c0 -5 -5 -9 -11 -9 -6 0 -8 -7
-5 -17 4 -10 4 -14 0 -11 -4 4 -16 2 -27 -4 -19 -10 -15 -13 38 -30 38 -12 61
-15 63 -8 2 5 18 10 35 11 28 0 29 1 11 9 -24 9 -39 28 -30 37 8 9 64 -17 70
-32 5 -15 85 -61 99 -57 4 1 7 -4 7 -10 0 -10 2 -10 8 -1 6 10 19 7 52 -11 25
-13 58 -26 74 -30 15 -4 26 -9 23 -12 -10 -10 -168 30 -188 47 -12 10 -35 21
-52 24 -18 4 -41 9 -52 11 -15 4 -17 3 -5 -4 8 -5 32 -12 52 -16 21 -4 40 -11
42 -15 7 -10 -70 4 -137 26 -27 8 -51 13 -53 10 -3 -3 12 -11 33 -18 21 -6 63
-25 94 -41 32 -17 75 -30 101 -32 25 -1 63 -12 86 -23 23 -11 43 -16 45 -10 1
5 10 8 20 6 11 -3 14 -8 8 -18 -6 -10 -36 -16 -92 -19 -59 -3 -80 -2 -75 7 7
11 -20 15 -92 12 -19 0 -43 4 -53 10 -15 7 -19 7 -17 -3 2 -7 12 -16 23 -20
16 -5 14 -6 -10 -7 -16 0 -53 10 -81 23 -64 30 -91 20 -55 -18 13 -14 29 -22
35 -19 6 4 6 0 -1 -8 -17 -21 13 -52 80 -85 83 -39 105 -54 84 -54 -10 0 -15
-5 -12 -11 9 -14 124 -2 153 17 32 21 27 -1 -6 -24 -18 -13 -37 -18 -55 -15
-17 3 -27 1 -27 -6 0 -16 -95 -9 -96 7 -3 22 -4 23 -14 17 -7 -4 -8 -11 -2
-18 6 -7 8 -32 7 -57 -2 -25 2 -52 8 -60 6 -8 8 -12 3 -8 -12 10 -34 -15 -42
-46 -3 -14 -11 -29 -17 -33 -5 -3 -7 -2 -4 3 3 6 2 16 -4 24 -5 10 -9 11 -9 3
0 -7 -7 -10 -15 -7 -27 11 -16 -14 15 -32 16 -10 31 -23 34 -29 5 -14 -50 -11
-89 5 -16 7 -50 19 -75 26 -41 12 -43 12 -25 -2 11 -8 21 -19 21 -24 3 -23 5
-24 13 -12 6 10 10 10 21 -3 11 -13 10 -15 -2 -10 -18 7 -30 -17 -21 -41 5
-13 8 -13 15 -2 8 11 9 10 6 -1 -2 -8 -19 -15 -38 -18 -18 -2 -36 -6 -39 -9
-3 -4 6 -4 22 -2 15 3 27 1 27 -3 0 -5 -10 -10 -22 -10 -17 -1 -19 -2 -5 -6
19 -5 22 -24 6 -40 -7 -7 -6 -15 5 -26 11 -11 12 -16 3 -20 -8 -3 -13 -36 -15
-98 -2 -52 -6 -98 -9 -103 -9 -13 -32 35 -33 66 0 15 -6 33 -13 40 -7 7 -22
34 -32 61 -29 75 -12 250 37 377 7 19 16 37 19 40 3 3 13 31 23 64 12 38 21
54 26 45 7 -10 12 -10 23 -1 11 10 17 9 27 -3 7 -8 18 -15 24 -15 6 0 0 9 -14
19 -13 11 -27 18 -30 16 -4 -2 -4 9 -2 25 l4 30 31 -26 c16 -14 36 -23 44 -20
8 3 12 2 9 -3 -3 -5 7 -14 24 -19 42 -15 48 4 8 28 -18 11 -35 20 -38 21 -47
7 -69 26 -71 58 0 9 -7 0 -14 -19 -13 -35 -13 -34 -13 35 0 59 14 146 17 108
1 -16 72 -52 90 -45 8 3 11 0 7 -7 -5 -7 -1 -9 10 -4 12 4 15 3 10 -5 -5 -8
-2 -10 8 -6 24 9 11 21 -45 39 -28 10 -53 24 -56 34 -4 9 -11 19 -17 23 -6 4
-8 9 -6 11 3 3 21 -4 40 -15 23 -13 27 -18 13 -15 -13 3 -23 3 -23 1 0 -9 76
-34 95 -31 15 2 12 6 -15 14 -30 10 -32 11 -10 12 14 1 32 6 40 11 11 7 4 10
-26 10 -30 0 -53 8 -83 30 -36 26 -40 33 -31 51 6 11 8 29 5 39 -5 16 -2 20
17 20 18 0 20 -2 8 -10 -10 -7 -11 -10 -2 -10 7 0 15 6 18 14 6 15 34 11 34
-5z m579 -191 c-2 -183 0 -218 24 -356 25 -136 50 -361 42 -370 -5 -5 -25 69
-25 91 0 21 -35 148 -47 173 -10 20 -39 131 -46 174 -2 14 -5 -15 -6 -63 0
-53 -7 -102 -16 -124 -21 -50 -25 -39 -11 32 13 63 8 129 -5 70 -9 -40 -11
-24 -10 65 l2 75 -27 -57 c-18 -38 -31 -55 -40 -51 -8 3 -14 11 -14 18 0 7 -5
15 -12 17 -8 3 -4 16 12 38 l24 34 6 -24 c6 -23 7 -23 14 10 5 19 19 55 32 79
15 28 27 68 30 105 4 51 63 266 72 266 2 0 2 -91 1 -202z m-587 -46 c10 -8 39
-18 65 -23 26 -5 51 -15 55 -23 11 -19 55 -29 77 -16 16 8 18 7 14 -10 -3 -12
0 -20 6 -20 7 0 9 -4 6 -10 -3 -5 0 -10 7 -10 9 0 14 12 13 38 l0 37 70 -4
c39 -1 72 -5 74 -7 8 -8 -8 -16 -33 -18 -21 -1 -23 -3 -12 -14 11 -11 18 -11
36 -2 12 6 24 9 27 6 8 -8 -94 -54 -136 -62 -18 -4 -36 -2 -40 3 -7 12 -51 27
-51 18 0 -3 10 -10 23 -15 17 -7 12 -8 -18 -3 -44 6 -179 65 -189 82 -4 7 -1
9 8 5 25 -10 12 25 -20 52 -16 14 -22 22 -14 18 8 -4 23 -14 32 -22z m471
-537 c-5 -37 -3 -46 12 -51 13 -5 14 -9 3 -15 -9 -6 -7 -9 9 -9 20 0 88 -71
78 -82 -3 -2 9 -17 25 -33 20 -19 30 -39 30 -59 1 -17 8 -49 16 -71 8 -22 22
-60 30 -85 9 -25 27 -55 40 -68 14 -13 22 -27 19 -32 -3 -5 -1 -11 5 -15 6 -4
8 -44 5 -107 -3 -56 -1 -106 4 -112 5 -6 12 -22 16 -35 6 -21 2 -19 -35 15
-75 68 -88 83 -95 105 -4 13 -11 27 -16 33 -49 58 -56 71 -51 84 3 10 1 13 -6
8 -14 -8 -15 -5 -6 18 3 9 10 13 15 10 5 -3 9 0 9 6 0 6 -7 13 -15 16 -8 4
-13 10 -10 15 11 17 -48 99 -72 99 -7 0 -13 9 -13 20 0 11 -4 20 -10 20 -5 0
-10 7 -10 15 0 8 -3 14 -7 13 -5 -1 -18 3 -29 10 -12 6 -25 8 -28 4 -9 -9 2
39 21 93 36 98 36 96 -3 89 -45 -8 -44 2 3 15 22 6 41 7 48 1 7 -6 11 -2 11
11 0 10 -3 19 -7 19 -6 0 -4 26 7 78 8 40 14 23 7 -23z m-598 -346 c-4 -5 -1
-9 4 -9 6 0 11 -5 11 -11 0 -14 25 -39 39 -39 6 0 12 -8 12 -17 2 -22 5 -54 8
-68 1 -5 5 -4 10 3 4 7 7 -26 5 -75 -1 -48 -3 -130 -5 -180 -1 -51 -6 -93 -11
-93 -4 0 -8 5 -8 10 0 20 -16 9 -27 -17 l-11 -28 -2 30 c-1 17 -2 38 -1 48 1
9 -4 17 -12 17 -16 0 -18 -30 -2 -43 7 -6 6 -10 -1 -13 -5 -2 -9 -22 -8 -44 1
-22 -3 -43 -9 -47 -6 -4 -8 0 -4 10 3 10 3 17 -2 17 -4 0 -11 26 -14 58 -30
291 -36 366 -32 370 3 3 5 -6 6 -19 1 -23 1 -23 9 3 4 15 10 51 12 80 3 52 15
80 31 71 4 -2 5 -9 2 -14z m944 -1174 c13 -33 43 -113 67 -177 l43 -116 -21
-44 c-17 -35 -21 -60 -20 -139 0 -92 -1 -96 -20 -91 -11 2 -21 10 -23 16 -16
63 -67 633 -54 618 3 -4 16 -34 28 -67z"/>
</g>
</svg>
